<svg version="1.2" xmlns="http://www.w3.org/2000/svg" viewBox="0 0 256 256" width="256" height="256">
	<title>icons8-youtube-50-svg</title>
	<style>
		.s0 { fill: #ffffff } 
		.s1 { fill: #ffffff;stroke: #000000;stroke-linejoin: round;stroke-width: 10 } 
	</style>
	<g id="Layer">
		<g id="Layer">
			<path id="shape" class="s0" d="m73.7 221.7c-21.8 0-39.4-17.6-39.4-39.4v-108.6c0-21.8 17.6-39.4 39.4-39.4h108.6c21.8 0 39.4 17.6 39.4 39.4v108.6c0 21.8-17.6 39.4-39.4 39.4z"/>
		</g>
		<g id="Layer">
			<g id="Layer">
				<path id="Layer" fill-rule="evenodd" class="s1" d="m256 128c0 0 0 54.5-5.4 74.4-2.9 11-11.6 19.7-22.6 22.6-19.9 5.4-100 5.4-100 5.4 0 0-80.1 0-100-5.4-11-2.9-19.7-11.6-22.6-22.6-5.4-19.9-5.4-74.4-5.4-74.4 0 0 0-54.5 5.4-74.4 2.9-11 11.6-19.7 22.6-22.6 19.9-5.4 100-5.4 100-5.4 0 0 80.1 0 100 5.4 11 2.9 19.7 11.6 22.6 22.6 5.4 19.9 5.4 74.4 5.4 74.4zm-144 38.8l57.6-33.3c4.3-2.4 4.3-8.6 0-11l-57.6-33.3c-4.3-2.5-9.6 0.6-9.6 5.5v66.6c0 4.9 5.3 8 9.6 5.5z"/>
			</g>
		</g>
	</g>
</svg>